<?xml version="1.0" encoding="UTF-8" standalone="no"?>
<!DOCTYPE svg PUBLIC "-//W3C//DTD SVG 1.1//EN"
 "http://www.w3.org/Graphics/SVG/1.1/DTD/svg11.dtd">
<!-- Generated by graphviz version 2.43.0 (0)
 -->
<!-- Title: %3 Pages: 1 -->
<svg width="576pt" height="79pt"
 viewBox="0.00 0.00 576.00 79.00" xmlns="http://www.w3.org/2000/svg" xmlns:xlink="http://www.w3.org/1999/xlink">
<g id="graph0" class="graph" transform="scale(1 1) rotate(0) translate(18 61)">
<title>%3</title>
<polygon fill="white" stroke="transparent" points="-18,18 -18,-61 558,-61 558,18 -18,18"/>
<!-- 6fe440b5d0464e00b217abe081e8f356 -->
<g id="node1" class="node">
<title>6fe440b5d0464e00b217abe081e8f356</title>
<path fill="#1874cd" stroke="black" d="M540,-39.09C540,-41.25 507.73,-43 468,-43 428.27,-43 396,-41.25 396,-39.09 396,-39.09 396,-3.91 396,-3.91 396,-1.75 428.27,0 468,0 507.73,0 540,-1.75 540,-3.91 540,-3.91 540,-39.09 540,-39.09"/>
<path fill="none" stroke="black" d="M540,-39.09C540,-36.93 507.73,-35.18 468,-35.18 428.27,-35.18 396,-36.93 396,-39.09"/>
<text text-anchor="start" x="435.5" y="-16.84" font-family="Sans-Serif" font-weight="bold" font-size="12.00" fill="white">Database</text>
<text text-anchor="start" x="451" y="-7.24" font-family="Sans-Serif" font-size="9.00" fill="white">[Model]</text>
</g>
<!-- 8a8b1ce7b2194c8ab9ec3439d8275d0a -->
<g id="node2" class="node">
<title>8a8b1ce7b2194c8ab9ec3439d8275d0a</title>
<polygon fill="#1874cd" stroke="black" points="342,-43 198,-43 198,0 342,0 342,-43"/>
<text text-anchor="start" x="220" y="-23.4" font-family="Sans-Serif" font-weight="bold" font-size="12.00" fill="white">Business Logic</text>
<text text-anchor="start" x="244" y="-13.8" font-family="Sans-Serif" font-size="9.00" fill="white">[Controller]</text>
</g>
<!-- 8a8b1ce7b2194c8ab9ec3439d8275d0a&#45;&gt;6fe440b5d0464e00b217abe081e8f356 -->
<g id="edge3" class="edge">
<title>8a8b1ce7b2194c8ab9ec3439d8275d0a&#45;&gt;6fe440b5d0464e00b217abe081e8f356</title>
<path fill="none" stroke="#7b8894" d="M342.04,-14.33C342.04,-14.33 385.68,-14.33 385.68,-14.33"/>
<polygon fill="#7b8894" stroke="#7b8894" points="385.68,-17.83 395.68,-14.33 385.68,-10.83 385.68,-17.83"/>
</g>
<!-- 8a8b1ce7b2194c8ab9ec3439d8275d0a&#45;&gt;6fe440b5d0464e00b217abe081e8f356 -->
<g id="edge4" class="edge">
<title>8a8b1ce7b2194c8ab9ec3439d8275d0a&#45;&gt;6fe440b5d0464e00b217abe081e8f356</title>
<path fill="none" stroke="#7b8894" d="M352.04,-28.67C352.04,-28.67 395.68,-28.67 395.68,-28.67"/>
<polygon fill="#7b8894" stroke="#7b8894" points="352.04,-25.17 342.04,-28.67 352.04,-32.17 352.04,-25.17"/>
</g>
<!-- a45903dc6c184c4d99b8371f2f692fea -->
<g id="node3" class="node">
<title>a45903dc6c184c4d99b8371f2f692fea</title>
<polygon fill="#1874cd" stroke="black" points="144,-43 0,-43 0,0 144,0 144,-43"/>
<text text-anchor="start" x="40.5" y="-23.4" font-family="Sans-Serif" font-weight="bold" font-size="12.00" fill="white">Webpage</text>
<text text-anchor="start" x="57.5" y="-13.8" font-family="Sans-Serif" font-size="9.00" fill="white">[View]</text>
</g>
<!-- a45903dc6c184c4d99b8371f2f692fea&#45;&gt;8a8b1ce7b2194c8ab9ec3439d8275d0a -->
<g id="edge1" class="edge">
<title>a45903dc6c184c4d99b8371f2f692fea&#45;&gt;8a8b1ce7b2194c8ab9ec3439d8275d0a</title>
<path fill="none" stroke="#7b8894" d="M144.04,-14.33C144.04,-14.33 187.68,-14.33 187.68,-14.33"/>
<polygon fill="#7b8894" stroke="#7b8894" points="187.68,-17.83 197.68,-14.33 187.68,-10.83 187.68,-17.83"/>
</g>
<!-- a45903dc6c184c4d99b8371f2f692fea&#45;&gt;8a8b1ce7b2194c8ab9ec3439d8275d0a -->
<g id="edge2" class="edge">
<title>a45903dc6c184c4d99b8371f2f692fea&#45;&gt;8a8b1ce7b2194c8ab9ec3439d8275d0a</title>
<path fill="none" stroke="#7b8894" d="M154.04,-28.67C154.04,-28.67 197.68,-28.67 197.68,-28.67"/>
<polygon fill="#7b8894" stroke="#7b8894" points="154.04,-25.17 144.04,-28.67 154.04,-32.17 154.04,-25.17"/>
</g>
</g>
</svg>
