<?xml version="1.0" encoding="UTF-8" standalone="no"?>
<!DOCTYPE svg PUBLIC "-//W3C//DTD SVG 1.1//EN"
 "http://www.w3.org/Graphics/SVG/1.1/DTD/svg11.dtd">
<!-- Generated by graphviz version 2.43.0 (0)
 -->
<!-- Title: %3 Pages: 1 -->
<svg width="367pt" height="176pt"
 viewBox="0.00 0.00 367.00 176.00" xmlns="http://www.w3.org/2000/svg" xmlns:xlink="http://www.w3.org/1999/xlink">
<g id="graph0" class="graph" transform="scale(1 1) rotate(0) translate(18 158)">
<title>%3</title>
<polygon fill="white" stroke="transparent" points="-18,18 -18,-158 349,-158 349,18 -18,18"/>
<!-- 762930ffd8d441d08086192416cd6208 -->
<g id="node1" class="node">
<title>762930ffd8d441d08086192416cd6208</title>
<polygon fill="#1874cd" stroke="black" points="237,-140 93,-140 93,-97 237,-97 237,-140"/>
<text text-anchor="start" x="133" y="-116.4" font-family="Sans-Serif" font-weight="bold" font-size="12.00" fill="white">Publisher</text>
</g>
<!-- 33d63a28638a4d0c907b3cca85e731d9 -->
<g id="node2" class="node">
<title>33d63a28638a4d0c907b3cca85e731d9</title>
<polygon fill="#1874cd" stroke="black" points="144,-43 0,-43 0,0 144,0 144,-43"/>
<text text-anchor="start" x="29.5" y="-19.4" font-family="Sans-Serif" font-weight="bold" font-size="12.00" fill="white">Subscriber 1</text>
</g>
<!-- 762930ffd8d441d08086192416cd6208&#45;&gt;33d63a28638a4d0c907b3cca85e731d9 -->
<g id="edge2" class="edge">
<title>762930ffd8d441d08086192416cd6208&#45;&gt;33d63a28638a4d0c907b3cca85e731d9</title>
<path fill="none" stroke="#7b8894" d="M110,-96.97C110,-96.97 110,-53.3 110,-53.3"/>
<polygon fill="#7b8894" stroke="#7b8894" points="113.5,-53.3 110,-43.3 106.5,-53.3 113.5,-53.3"/>
</g>
<!-- 5c751b20a701446eb881ffaf3bbac3a8 -->
<g id="node3" class="node">
<title>5c751b20a701446eb881ffaf3bbac3a8</title>
<polygon fill="#1874cd" stroke="black" points="331,-43 187,-43 187,0 331,0 331,-43"/>
<text text-anchor="start" x="216.5" y="-19.4" font-family="Sans-Serif" font-weight="bold" font-size="12.00" fill="white">Subscriber 2</text>
</g>
<!-- 762930ffd8d441d08086192416cd6208&#45;&gt;5c751b20a701446eb881ffaf3bbac3a8 -->
<g id="edge4" class="edge">
<title>762930ffd8d441d08086192416cd6208&#45;&gt;5c751b20a701446eb881ffaf3bbac3a8</title>
<path fill="none" stroke="#7b8894" d="M203.67,-96.97C203.67,-96.97 203.67,-53.3 203.67,-53.3"/>
<polygon fill="#7b8894" stroke="#7b8894" points="207.17,-53.3 203.67,-43.3 200.17,-53.3 207.17,-53.3"/>
</g>
<!-- 33d63a28638a4d0c907b3cca85e731d9&#45;&gt;762930ffd8d441d08086192416cd6208 -->
<g id="edge1" class="edge">
<title>33d63a28638a4d0c907b3cca85e731d9&#45;&gt;762930ffd8d441d08086192416cd6208</title>
<path fill="none" stroke="#7b8894" d="M127,-43.03C127,-43.03 127,-86.7 127,-86.7"/>
<polygon fill="#7b8894" stroke="#7b8894" points="123.5,-86.7 127,-96.7 130.5,-86.7 123.5,-86.7"/>
</g>
<!-- 5c751b20a701446eb881ffaf3bbac3a8&#45;&gt;762930ffd8d441d08086192416cd6208 -->
<g id="edge3" class="edge">
<title>5c751b20a701446eb881ffaf3bbac3a8&#45;&gt;762930ffd8d441d08086192416cd6208</title>
<path fill="none" stroke="#7b8894" d="M220.33,-43.03C220.33,-43.03 220.33,-86.7 220.33,-86.7"/>
<polygon fill="#7b8894" stroke="#7b8894" points="216.83,-86.7 220.33,-96.7 223.83,-86.7 216.83,-86.7"/>
</g>
</g>
</svg>
