<?xml version="1.0" encoding="UTF-8" standalone="no"?>
<!DOCTYPE svg PUBLIC "-//W3C//DTD SVG 1.1//EN"
 "http://www.w3.org/Graphics/SVG/1.1/DTD/svg11.dtd">
<!-- Generated by graphviz version 2.43.0 (0)
 -->
<!-- Title: %3 Pages: 1 -->
<svg width="367pt" height="176pt"
 viewBox="0.00 0.00 367.00 176.00" xmlns="http://www.w3.org/2000/svg" xmlns:xlink="http://www.w3.org/1999/xlink">
<g id="graph0" class="graph" transform="scale(1 1) rotate(0) translate(18 158)">
<title>%3</title>
<polygon fill="white" stroke="transparent" points="-18,18 -18,-158 349,-158 349,18 -18,18"/>
<!-- 04c8f6482dc9437cb2c687cd69445012 -->
<g id="node1" class="node">
<title>04c8f6482dc9437cb2c687cd69445012</title>
<polygon fill="#1874cd" stroke="black" points="237,-140 93,-140 93,-97 237,-97 237,-140"/>
<text text-anchor="start" x="133" y="-116.4" font-family="Sans-Serif" font-weight="bold" font-size="12.00" fill="white">Publisher</text>
</g>
<!-- ec661c72fe9a4ddb96583f7773b14083 -->
<g id="node2" class="node">
<title>ec661c72fe9a4ddb96583f7773b14083</title>
<polygon fill="#1874cd" stroke="black" points="144,-43 0,-43 0,0 144,0 144,-43"/>
<text text-anchor="start" x="29.5" y="-19.4" font-family="Sans-Serif" font-weight="bold" font-size="12.00" fill="white">Subscriber 1</text>
</g>
<!-- 04c8f6482dc9437cb2c687cd69445012&#45;&gt;ec661c72fe9a4ddb96583f7773b14083 -->
<g id="edge1" class="edge">
<title>04c8f6482dc9437cb2c687cd69445012&#45;&gt;ec661c72fe9a4ddb96583f7773b14083</title>
<path fill="none" stroke="#7b8894" d="M118.5,-96.97C118.5,-96.97 118.5,-53.3 118.5,-53.3"/>
<polygon fill="#7b8894" stroke="#7b8894" points="122,-53.3 118.5,-43.3 115,-53.3 122,-53.3"/>
</g>
<!-- e8337854d3804121b91ede01e4f0aeb5 -->
<g id="node3" class="node">
<title>e8337854d3804121b91ede01e4f0aeb5</title>
<polygon fill="#1874cd" stroke="black" points="331,-43 187,-43 187,0 331,0 331,-43"/>
<text text-anchor="start" x="216.5" y="-19.4" font-family="Sans-Serif" font-weight="bold" font-size="12.00" fill="white">Subscriber 2</text>
</g>
<!-- 04c8f6482dc9437cb2c687cd69445012&#45;&gt;e8337854d3804121b91ede01e4f0aeb5 -->
<g id="edge2" class="edge">
<title>04c8f6482dc9437cb2c687cd69445012&#45;&gt;e8337854d3804121b91ede01e4f0aeb5</title>
<path fill="none" stroke="#7b8894" d="M212,-96.97C212,-96.97 212,-53.3 212,-53.3"/>
<polygon fill="#7b8894" stroke="#7b8894" points="215.5,-53.3 212,-43.3 208.5,-53.3 215.5,-53.3"/>
</g>
</g>
</svg>
