<?xml version="1.0" encoding="UTF-8" standalone="no"?>
<!DOCTYPE svg PUBLIC "-//W3C//DTD SVG 1.1//EN"
 "http://www.w3.org/Graphics/SVG/1.1/DTD/svg11.dtd">
<!-- Generated by graphviz version 2.43.0 (0)
 -->
<!-- Title: %3 Pages: 1 -->
<svg width="367pt" height="176pt"
 viewBox="0.00 0.00 367.00 176.00" xmlns="http://www.w3.org/2000/svg" xmlns:xlink="http://www.w3.org/1999/xlink">
<g id="graph0" class="graph" transform="scale(1 1) rotate(0) translate(18 158)">
<title>%3</title>
<polygon fill="white" stroke="transparent" points="-18,18 -18,-158 349,-158 349,18 -18,18"/>
<!-- b40dd3d51046465ba8c1d290217a7777 -->
<g id="node1" class="node">
<title>b40dd3d51046465ba8c1d290217a7777</title>
<polygon fill="#1874cd" stroke="black" points="237,-140 93,-140 93,-97 237,-97 237,-140"/>
<text text-anchor="start" x="152" y="-116.4" font-family="Sans-Serif" font-weight="bold" font-size="12.00" fill="white">Gps</text>
</g>
<!-- d4c32eddd4ed4e75b294daae2fa72a6b -->
<g id="node2" class="node">
<title>d4c32eddd4ed4e75b294daae2fa72a6b</title>
<polygon fill="#1874cd" stroke="black" points="144,-43 0,-43 0,0 144,0 144,-43"/>
<text text-anchor="start" x="57.5" y="-19.4" font-family="Sans-Serif" font-weight="bold" font-size="12.00" fill="white">Map</text>
</g>
<!-- b40dd3d51046465ba8c1d290217a7777&#45;&gt;d4c32eddd4ed4e75b294daae2fa72a6b -->
<g id="edge1" class="edge">
<title>b40dd3d51046465ba8c1d290217a7777&#45;&gt;d4c32eddd4ed4e75b294daae2fa72a6b</title>
<path fill="none" stroke="#7b8894" d="M118.5,-96.97C118.5,-96.97 118.5,-53.3 118.5,-53.3"/>
<polygon fill="#7b8894" stroke="#7b8894" points="122,-53.3 118.5,-43.3 115,-53.3 122,-53.3"/>
</g>
<!-- 69c5f7302aa643bd849dbb72d0c800b1 -->
<g id="node3" class="node">
<title>69c5f7302aa643bd849dbb72d0c800b1</title>
<polygon fill="#1874cd" stroke="black" points="331,-43 187,-43 187,0 331,0 331,-43"/>
<text text-anchor="start" x="229.5" y="-19.4" font-family="Sans-Serif" font-weight="bold" font-size="12.00" fill="white">Distance</text>
</g>
<!-- b40dd3d51046465ba8c1d290217a7777&#45;&gt;69c5f7302aa643bd849dbb72d0c800b1 -->
<g id="edge2" class="edge">
<title>b40dd3d51046465ba8c1d290217a7777&#45;&gt;69c5f7302aa643bd849dbb72d0c800b1</title>
<path fill="none" stroke="#7b8894" d="M212,-96.97C212,-96.97 212,-53.3 212,-53.3"/>
<polygon fill="#7b8894" stroke="#7b8894" points="215.5,-53.3 212,-43.3 208.5,-53.3 215.5,-53.3"/>
</g>
</g>
</svg>
