<?xml version="1.0" encoding="UTF-8" standalone="no"?>
<!DOCTYPE svg PUBLIC "-//W3C//DTD SVG 1.1//EN"
 "http://www.w3.org/Graphics/SVG/1.1/DTD/svg11.dtd">
<!-- Generated by graphviz version 2.43.0 (0)
 -->
<!-- Title: %3 Pages: 1 -->
<svg width="367pt" height="176pt"
 viewBox="0.00 0.00 367.00 176.00" xmlns="http://www.w3.org/2000/svg" xmlns:xlink="http://www.w3.org/1999/xlink">
<g id="graph0" class="graph" transform="scale(1 1) rotate(0) translate(18 158)">
<title>%3</title>
<polygon fill="white" stroke="transparent" points="-18,18 -18,-158 349,-158 349,18 -18,18"/>
<!-- c2da23464ffa43bda5d9f4305184836c -->
<g id="node1" class="node">
<title>c2da23464ffa43bda5d9f4305184836c</title>
<polygon fill="#1874cd" stroke="black" points="237,-140 93,-140 93,-97 237,-97 237,-140"/>
<text text-anchor="start" x="152" y="-116.4" font-family="Sans-Serif" font-weight="bold" font-size="12.00" fill="white">Gps</text>
</g>
<!-- bc02956e4114446da12f4dfa9bf1d89b -->
<g id="node2" class="node">
<title>bc02956e4114446da12f4dfa9bf1d89b</title>
<polygon fill="#1874cd" stroke="black" points="144,-43 0,-43 0,0 144,0 144,-43"/>
<text text-anchor="start" x="57.5" y="-19.4" font-family="Sans-Serif" font-weight="bold" font-size="12.00" fill="white">Map</text>
</g>
<!-- c2da23464ffa43bda5d9f4305184836c&#45;&gt;bc02956e4114446da12f4dfa9bf1d89b -->
<g id="edge1" class="edge">
<title>c2da23464ffa43bda5d9f4305184836c&#45;&gt;bc02956e4114446da12f4dfa9bf1d89b</title>
<path fill="none" stroke="#7b8894" d="M118.5,-96.97C118.5,-96.97 118.5,-53.3 118.5,-53.3"/>
<polygon fill="#7b8894" stroke="#7b8894" points="122,-53.3 118.5,-43.3 115,-53.3 122,-53.3"/>
</g>
<!-- 8787a40cc6fd444588d42d6609b5a30f -->
<g id="node3" class="node">
<title>8787a40cc6fd444588d42d6609b5a30f</title>
<polygon fill="#1874cd" stroke="black" points="331,-43 187,-43 187,0 331,0 331,-43"/>
<text text-anchor="start" x="229.5" y="-19.4" font-family="Sans-Serif" font-weight="bold" font-size="12.00" fill="white">Distance</text>
</g>
<!-- c2da23464ffa43bda5d9f4305184836c&#45;&gt;8787a40cc6fd444588d42d6609b5a30f -->
<g id="edge2" class="edge">
<title>c2da23464ffa43bda5d9f4305184836c&#45;&gt;8787a40cc6fd444588d42d6609b5a30f</title>
<path fill="none" stroke="#7b8894" d="M212,-96.97C212,-96.97 212,-53.3 212,-53.3"/>
<polygon fill="#7b8894" stroke="#7b8894" points="215.5,-53.3 212,-43.3 208.5,-53.3 215.5,-53.3"/>
</g>
</g>
</svg>
